IKResults
version=1
nRows=9
nColumns=63
inDegrees=yes

Units are S.I. units (second, meters, Newtons, ...)
If the header above contains a line with 'inDegrees', this indicates whether rotational values are in degrees (yes) or radians (no).

endheader
time	pelvis_tilt	pelvis_list	pelvis_rotation	pelvis_tx	pelvis_ty	pelvis_tz	hip_flexion_r	hip_adduction_r	hip_rotation_r	knee_angle_r	knee_angle_r_beta	ankle_angle_r	subtalar_angle_r	mtp_angle_r	hip_flexion_l	hip_adduction_l	hip_rotation_l	knee_angle_l	knee_angle_l_beta	ankle_angle_l	subtalar_angle_l	mtp_angle_l	L5_S1_Flex_Ext	L5_S1_Lat_Bending	L5_S1_axial_rotation	L4_L5_Flex_Ext	L4_L5_Lat_Bending	L4_L5_axial_rotation	L3_L4_Flex_Ext	L3_L4_Lat_Bending	L3_L4_axial_rotation	L2_L3_Flex_Ext	L2_L3_Lat_Bending	L2_L3_axial_rotation	L1_L2_Flex_Ext	L1_L2_Lat_Bending	L1_L2_axial_rotation	L1_T12_Flex_Ext	L1_T12_Lat_Bending	L1_T12_axial_rotation	Abs_r3	Abs_r2	Abs_r1	Abs_t1	Abs_t2	neck_flexion	neck_bending	neck_rotation	arm_flex_r	arm_add_r	arm_rot_r	elbow_flex_r	pro_sup_r	wrist_flex_r	wrist_dev_r	arm_flex_l	arm_add_l	arm_rot_l	elbow_flex_l	pro_sup_l	wrist_flex_l	wrist_dev_l
      4.03333333	     99.56466899	      7.39005352	     -2.77908194	     -0.78443598	      0.27117058	     -0.23275953	     -1.01034232	    -20.18594014	      1.39430841	     33.42766893	      0.58342288	    -36.83487176	    -18.55262652	      0.00000000	     -7.24984201	     -9.07606950	    -17.83664080	     21.14213285	      0.36899983	    -45.73230224	    -17.94879377	      0.00000000	     -4.13960607	     -1.23384161	      0.74589460	     -7.68766243	     -1.64100934	      0.79251301	     -6.80095881	     -2.99996249	      0.79251301	     -4.73115578	     -2.99996249	      0.65265777	     -3.84403820	     -2.51604981	      0.60603936	     -2.36537091	     -1.91122065	      0.55942095	    -29.56879219	    -13.95746304	      4.14844198	      0.00000000	      0.00000000	    -10.65293702	      8.69243362	    -10.20380187	    -48.05730709	    -44.58501180	   -118.94011529	     34.01550507	     89.99559364	      0.00000000	      0.00000000	    -84.85078596	    -55.94477708	    -82.61922248	     45.69904056	     89.99559364	      0.00000000	      0.00000000
      4.06666667	    100.58028632	      6.54013106	     -1.96512715	     -0.78648560	      0.27124413	     -0.23340623	     -3.22213551	    -19.37747719	     -0.20622772	     32.10728863	      0.56037790	    -37.09055884	    -18.29008825	      0.00000000	     -8.18408956	    -10.09708800	    -17.19075404	     21.16838267	      0.36945797	    -45.61680043	    -17.82932516	      0.00000000	     -4.31639804	     -1.10747265	      0.65083801	     -8.01598280	     -1.47293862	      0.69151539	     -7.09141034	     -2.69270900	      0.69151539	     -4.93321132	     -2.69270900	      0.56948326	     -4.00820722	     -2.25835823	      0.52880588	     -2.46638984	     -1.71547513	      0.48812851	    -30.83159955	    -12.52795210	      3.61976577	      0.00000000	      0.00000000	    -10.29966267	      8.43999944	    -10.12559858	    -48.55115382	    -44.94617051	   -119.55781892	     33.76979269	     89.99559364	      0.00000000	      0.00000000	    -84.15388455	    -55.93206998	    -82.25016743	     45.54279635	     89.99559364	      0.00000000	      0.00000000
      4.10000000	    100.50085769	      6.33292367	     -2.11718538	     -0.78652351	      0.27027878	     -0.23297588	     -3.14834918	    -19.29610450	     -0.38671065	     31.76319320	      0.55437230	    -37.04605973	    -18.04316468	      0.00000000	     -8.07143545	    -10.27684149	    -17.18674557	     21.18313972	      0.36971553	    -45.70912974	    -17.82074793	      0.00000000	     -4.30880105	     -1.09141219	      0.68049443	     -8.00187443	     -1.45157821	      0.72302534	     -7.07892924	     -2.65365959	      0.72302534	     -4.92452872	     -2.65365959	      0.59543263	     -4.00115265	     -2.22560773	      0.55290173	     -2.46204892	     -1.69059748	      0.51037082	    -30.77733501	    -12.34627295	      3.78470589	      0.00000000	      0.00000000	    -10.04538622	      8.43458509	    -10.11622745	    -48.71365193	    -45.09593098	   -119.63514800	     33.75297489	     89.99559364	      0.00000000	      0.00000000	    -84.24161267	    -55.83456343	    -82.30618712	     45.46404017	     89.99559364	      0.00000000	      0.00000000
      4.13333333	    101.45245062	      4.91202122	     -0.39476858	     -0.78850308	      0.27030338	     -0.23440944	     -5.75327992	    -17.63680271	     -2.76959170	     30.14016987	      0.52604520	    -37.47344697	    -17.62045666	      0.00000000	     -8.47803916	    -12.22172834	    -15.95088564	     21.67164214	      0.37824151	    -45.26706096	    -17.63890275	      0.00000000	     -4.48601484	     -0.86683136	      0.49272985	     -8.33097816	     -1.15288571	      0.52352546	     -7.37007378	     -2.10761378	      0.52352546	     -5.12706636	     -2.10761378	      0.43113862	     -4.16571338	     -1.76764252	      0.40034300	     -2.56330888	     -1.34272178	      0.36954738	    -32.04315539	     -9.80576976	      2.74041559	      0.00000000	      0.00000000	     -9.76254872	      7.89530660	     -9.89980577	    -49.51148190	    -45.51304510	   -120.29766521	     33.27710200	     89.99559364	      0.00000000	      0.00000000	    -82.85787319	    -55.95648992	    -81.40952318	     45.44588203	     89.99559364	      0.00000000	      0.00000000
      4.16666667	    101.47995130	      4.23406839	     -0.10344540	     -0.78876290	      0.26961802	     -0.23448697	     -6.11767060	    -16.94031126	     -3.29817533	     29.52931408	      0.51538376	    -37.53988311	    -17.25228559	      0.00000000	     -8.27603697	    -13.06056894	    -15.78048658	     21.92831566	      0.38272131	    -45.17071695	    -17.53164553	      0.00000000	     -4.49817515	     -0.77548428	      0.49956886	     -8.35356107	     -1.03139409	      0.53079192	     -7.39005195	     -1.88551247	      0.53079192	     -5.14096438	     -1.88551247	      0.43712275	     -4.17700544	     -1.58136753	      0.40589970	     -2.57025728	     -1.20122514	      0.37467665	    -32.13001528	     -8.77243322	      2.77845214	      0.00000000	      0.00000000	     -9.65159368	      7.61590143	     -9.75765581	    -49.96910718	    -45.67314550	   -120.54571778	     33.13177677	     89.99559364	      0.00000000	      0.00000000	    -82.21397309	    -56.03735993	    -80.84796647	     45.47240022	     89.99559364	      0.00000000	      0.00000000
      4.20000000	    101.52058287	      3.64835823	     -0.01233205	     -0.78884668	      0.26926538	     -0.23461900	     -6.36846410	    -16.42062905	     -3.71471870	     29.08335310	      0.50760027	    -37.46495230	    -16.69153307	      0.00000000	     -8.23073021	    -13.74706686	    -15.93216076	     22.08025112	      0.38537308	    -44.95296162	    -17.47529656	      0.00000000	     -4.50568348	     -0.69991083	      0.52632878	     -8.36750479	     -0.93088141	      0.55922433	     -7.40238739	     -1.70176320	      0.55922433	     -5.14954565	     -1.70176320	      0.46053768	     -4.18397768	     -1.42725817	      0.42764213	     -2.57454754	     -1.08416188	      0.39474658	    -32.18364651	     -7.91753132	      2.92728276	      0.00000000	      0.00000000	     -9.41391791	      7.30336297	     -9.70004036	    -50.39635733	    -45.92968692	   -120.77408354	     32.84509294	     89.99559364	      0.00000000	      0.00000000	    -81.70897793	    -56.01676010	    -80.24587422	     45.65990993	     89.99559364	      0.00000000	      0.00000000
      4.23333333	    101.76834838	      3.01768382	      0.32913190	     -0.78934752	      0.26927867	     -0.23510409	     -7.07891904	    -15.73444777	     -4.21217635	     28.40154974	      0.49570056	    -37.61148801	    -16.34359470	      0.00000000	     -8.36267447	    -14.51043785	    -15.73686315	     22.18523834	      0.38720545	    -44.77328405	    -17.31205573	      0.00000000	     -4.54449876	     -0.60435715	      0.53294687	     -8.43958864	     -0.80379500	      0.56625604	     -7.46615701	     -1.46943397	      0.56625604	     -5.19390763	     -1.46943397	      0.46632851	     -4.22002155	     -1.23240509	      0.43301933	     -2.59672659	     -0.93614922	      0.39971015	    -32.46090018	     -6.83660891	      2.96409058	      0.00000000	      0.00000000	     -9.22395111	      6.85659468	     -9.50363429	    -50.96062794	    -46.02450539	   -121.12168896	     32.71424959	     89.99559364	      0.00000000	      0.00000000	    -80.83255637	    -56.20983017	    -79.40805303	     45.67981146	     89.99559364	      0.00000000	      0.00000000
      4.26666667	    101.77384172	      3.00201718	      0.32514563	     -0.78927286	      0.26922840	     -0.23500718	     -7.08823018	    -15.75262448	     -4.20980842	     28.39294417	      0.49555036	    -37.60386750	    -16.32788998	      0.00000000	     -8.35338880	    -14.53256345	    -15.73357063	     22.18011823	      0.38711609	    -44.77124081	    -17.29609547	      0.00000000	     -4.54301310	     -0.60423735	      0.53383514	     -8.43682963	     -0.80363568	      0.56719983	     -7.46371623	     -1.46914269	      0.56719983	     -5.19220968	     -1.46914269	      0.46710575	     -4.21864197	     -1.23216081	      0.43374105	     -2.59587769	     -0.93596366	      0.40037635	    -32.45028830	     -6.83525376	      2.96903089	      0.00000000	      0.00000000	     -9.21153627	      6.85504352	     -9.50264360	    -50.95212594	    -46.02792406	   -121.11828136	     32.71452166	     89.99559364	      0.00000000	      0.00000000	    -80.82767699	    -56.22280116	    -79.40092070	     45.69231356	     89.99559364	      0.00000000	      0.00000000
      4.30000000	    101.82002419	      2.35850938	      0.40348795	     -0.78940612	      0.26912949	     -0.23526153	     -7.43883771	    -15.16378815	     -4.69297181	     27.80473111	      0.48528411	    -37.43487379	    -15.50633768	      0.00000000	     -8.33267578	    -15.28140669	    -15.91214666	     22.31725414	      0.38950956	    -44.65031933	    -17.30145393	      0.00000000	     -4.54959974	     -0.51831873	      0.59571924	     -8.44906168	     -0.68936392	      0.63295169	     -7.47453741	     -1.26024017	      0.63295169	     -5.19973754	     -1.26024017	      0.52125434	     -4.22475832	     -1.05695556	      0.48402188	     -2.59964129	     -0.80287572	      0.44678943	    -32.49733598	     -5.86332518	      3.31321170	      0.00000000	      0.00000000	     -8.76144976	      6.56292138	     -9.58403173	    -51.43257038	    -46.08048630	   -121.46731669	     32.52394181	     89.99559364	      0.00000000	      0.00000000	    -80.42864908	    -56.41366719	    -78.24769968	     46.22701685	     89.99559364	      0.00000000	      0.00000000
